# xmcd
#
# Track frame offsets:
#	150
#	18300
#	29125
#	42607
#	54886
#	69726
#	84202
#	97213
#	114621
#	129830
#	145402
#	157885
#	172883
#	184894
#	194848
#	213334
#	226371
#	242277
#	256470
#	271914
#	287952
#
# Disc length: 4025 seconds
#
# Revision: 0
# Processed by: cddbd v1.5.2PL0 Copyright (c) Steve Scherf et al.
# Submitted via: EZCDAudioConverter 4.0.5.1
#
DISCID=330fb715
DTITLE=ERG Music - Nu Urban Traxx Volume 262
DYEAR=2019
DGENRE=Rap
TTITLE0=Chris Brown ft. Drake - No Guidance
TTITLE1=Cardi B - Press
TTITLE2=Marlo ft. City Girls and Offset - Soakin Wet
TTITLE3=Dababy - Suge
TTITLE4=YFN Lucci ft. Trey Songz - All Night Long
TTITLE5=Tyler, The Creator - Earfquake
TTITLE6=Kiana Lede ft Offset - Bouncin
TTITLE7=Queen Naija\n - Away From You
TTITLE8=Dinah Jane - Heard It All Before
TTITLE9=Logic ft. Gucci Mane - Icy
TTITLE10=Tory Lanez ft. Quavo and Tyga\n - Broke Leg
TTITLE11=Young Thug ft. J. Cole and Travis Scott\n - The London
TTITLE12=Raphael Saadiq ft. Rob Bacon - Something Keeps Calling
TTITLE13=Shordie Shordie - Betchua (Bitchuary)
TTITLE14=DJ Snake and Sheck Wes ft. Offset, 21 Savage and Gucci Mane - Enzo
TTITLE15=Layton Greene ft. Lil Baby, City Girls and PnB Rock - Leave Em Alone
TTITLE16=Jhene Aiko - Triggered (Freestyle)
TTITLE17=Chaz French ft. Rich The Kid - Handful
TTITLE18=London On Da Track and G-Eazy ft. City Girls and Juvenile - Throw Fits
TTITLE19=Doja Cat ft. Rico Nasty - Tia Tamera
TTITLE20=A Boogie Wit Da Hoodie ft. 6ix9ine - Swervin
EXTD=
EXTT0=
EXTT1=
EXTT2=
EXTT3=
EXTT4=
EXTT5=
EXTT6=
EXTT7=
EXTT8=
EXTT9=
EXTT10=
EXTT11=
EXTT12=
EXTT13=
EXTT14=
EXTT15=
EXTT16=
EXTT17=
EXTT18=
EXTT19=
EXTT20=
PLAYORDER=
